<?xml version="1.0" encoding="UTF-8"?>
<!-- Generator: Blender, SVG Export for Grease Pencil - v1.0 -->
<!DOCTYPE svg PUBLIC "-//W3C//DTD SVG 1.1//EN" "http://www.w3.org/Graphics/SVG/1.1/DTD/svg11.dtd">
<svg version="1.0" x="0px" y="0px" xmlns="http://www.w3.org/2000/svg" width="1920px" height="1080px" viewBox="0 0 1920 1080">
	<g id="blender_frame_1">
		<g id="blender_object_GPencil">
			<!--Layer: Plane_Fills-->
			<g id="Plane_Fills">
				<polygon fill="#00C5FE" stroke="none" fill-opacity="1" points="355.993256,641.016907 329.385864,657.711914 306.619659,683.227417 328.805817,712.605347 390.297302,757.071472 485.838776,803.848999 579.504517,834.275391 657.085083,848.450684 728.568237,859.088013 796.497864,863.512146 865.340637,866.994507 932.796326,863.412415 1003.512939,857.799805 1078.251709,844.323730 1162.760864,816.855591 1239.500000,780.441650 1335.268188,731.967346 1402.903809,681.132080 1437.682617,638.988159 1487.015747,585.057556 1516.703369,550.309326 1538.561401,523.197021 1553.506348,507.379272 1571.448853,488.815125 1583.486328,474.932434 1589.922607,463.813721 1592.925537,452.947144 1588.474731,442.601196 1580.587891,432.482239 1566.775513,420.403442 1546.473511,404.505859 1529.512207,390.910156 1504.157837,367.078308 1469.994263,336.758118 1413.719238,290.133545 1373.463379,253.155823 1299.410645,212.114136 1197.742676,177.323181 1116.580444,151.847717 1028.926636,136.341125 952.898865,133.376770 881.954712,137.667786 814.529907,143.521973 746.722473,156.591248 679.959412,170.467712 610.555542,191.012268 535.616943,215.918518 447.052063,259.200684 358.991333,318.954895 304.389679,371.638794 286.600006,403.862549 312.794952,425.986267 341.531860,438.827942 373.170105,456.847900 414.720551,473.492615 449.268951,479.416565 481.062347,491.500610 543.581421,511.313171 564.318787,524.875793 545.702881,541.189209 486.613373,569.498901 456.854431,585.880249 423.499146,596.547607 384.740234,618.793701" />
			</g>
			<!--Layer: Plane_Lines-->
			<g id="Plane_Lines" />
		</g>
	</g>
</svg>
