<?xml version="1.0" encoding="UTF-8"?>
<!-- Generator: Blender, SVG Export for Grease Pencil - v1.0 -->
<!DOCTYPE svg PUBLIC "-//W3C//DTD SVG 1.1//EN" "http://www.w3.org/Graphics/SVG/1.1/DTD/svg11.dtd">
<svg version="1.0" x="0px" y="0px" xmlns="http://www.w3.org/2000/svg" width="1920px" height="1080px" viewBox="0 0 1920 1080">
	<g id="blender_frame_1">
		<g id="blender_object_GPencil">
			<!--Layer: Plane_Fills-->
			<g id="Plane_Fills">
				<polygon fill="#2C5263" stroke="none" fill-opacity="1" points="355.993256,641.016907 329.385864,657.711914 306.619659,683.227417 328.805817,712.605347 390.297302,757.071472 485.838776,803.848999 579.504517,834.275391 657.085083,848.450684 728.568237,859.088013 796.497864,863.512146 865.340637,866.994507 932.796326,863.412415 1003.512939,857.799805 1078.251709,844.323730 1162.760864,816.855591 1239.500000,780.441650 1335.268188,731.967346 1402.903809,681.132080 1437.682617,638.988159 1487.015747,585.057556 1516.703369,550.309326 1538.561401,523.197021 1553.506348,507.379272 1571.448853,488.815125 1583.486328,474.932434 1589.922607,463.813782 1592.925537,452.947144 1588.474731,442.601196 1580.587891,432.482300 1566.775513,420.403442 1546.473511,404.505859 1529.512207,390.910217 1504.157837,367.078308 1469.994263,336.758118 1413.719238,290.133545 1373.463379,253.155823 1299.410645,212.114136 1197.742676,177.323181 1116.580444,151.847717 1028.926636,136.341125 952.898865,133.376770 881.954712,137.667786 814.529907,143.521973 746.722473,156.591248 679.959412,170.467712 610.555542,191.012268 535.616943,215.918518 447.052063,259.200684 358.991333,318.954895 304.389679,371.638794 286.600006,403.862549 312.794952,425.986267 341.531860,438.827942 373.170105,456.847900 414.720551,473.492615 449.268951,479.416565 481.062347,491.500610 543.581421,511.313171 564.318787,524.875854 545.702881,541.189270 486.613373,569.498901 456.854431,585.880249 423.499146,596.547607 384.740234,618.793701" />
			</g>
			<!--Layer: Plane_Lines-->
			<g id="Plane_Lines">
				<polyline stroke="#00C5FE" stroke-opacity="1" fill="none" stroke-linecap="round" stroke-width="121" points="305.737030,683.445984 327.953217,712.863647 389.527863,757.389771 485.198486,804.230469 578.990845,834.697876 656.676086,848.892334 728.255737,859.544006 796.277100,863.974060 865.212891,867.461121 932.759583,863.874207 1003.571655,858.254028 1078.411377,844.759766 1163.034668,817.254639 1239.877441,780.791504 1335.775024,732.251709 1403.502075,681.347900 1438.327881,639.147034 1487.727905,585.143616 1517.455688,550.348389 1539.343384,523.199463 1554.308350,507.360352 1572.275269,488.771179 1584.328979,474.869690 1590.774048,463.735962 1593.781128,452.854614 1589.324097,442.494690 1581.426758,432.362122 1567.595703,420.266968 1547.266357,404.347900 1530.282227,390.733826 1504.893555,366.869690 1470.683838,336.508545 1414.332764,289.820862 1374.022461,252.793091 1299.869751,211.695801 1198.064209,176.857788 1116.792236,151.347839 1029.019897,135.820251 952.889282,132.851868 881.849182,137.148743 814.333069,143.010864 746.434021,156.097717 679.580627,169.993042 610.082886,190.565369 535.042908,215.505432 446.358368,258.846069 358.178680,318.681213 303.503326,371.436401 285.689667,403.703674" />
				<polyline stroke="#00C5FE" stroke-opacity="1" fill="none" stroke-linecap="round" stroke-width="121" points="563.784058,524.880554 545.143005,541.216003 485.973694,569.563843 456.174591,585.967407 422.774292,596.649170 383.963013,618.925293 355.177277,641.178589 328.533905,657.896118 305.737030,683.445984" />
				<polyline stroke="#00C5FE" stroke-opacity="1" fill="none" stroke-linecap="round" stroke-width="121" points="285.689667,403.703674 311.920105,425.857300 340.695923,438.716370 372.376892,456.760681 413.983551,473.427856 448.578644,479.359863 480.415070,491.460205 543.018738,511.299622 563.784058,524.880554" />
			</g>
		</g>
	</g>
</svg>
